<?xml version="1.0" encoding="iso-8859-1"?>
<!-- Generator: Adobe Illustrator 19.0.0, SVG Export Plug-In . SVG Version: 6.00 Build 0)  -->
<svg version="1.1" id="Layer_1" xmlns="http://www.w3.org/2000/svg" xmlns:xlink="http://www.w3.org/1999/xlink" x="0px" y="0px"
	 viewBox="0 0 511.992 511.992" style="enable-background:new 0 0 511.992 511.992;" xml:space="preserve">
<g>
	<rect x="74.655" y="10.656" style="fill:#434A54;" width="362.67" height="479.99"/>
	<path style="fill:#434A54;" d="M95.998,511.992c-5.891,0-10.656-4.781-10.656-10.672v-10.672c0-5.891,4.765-10.656,10.656-10.656
		s10.656,4.766,10.656,10.656v10.672C106.654,507.211,101.889,511.992,95.998,511.992z"/>
	<path style="fill:#434A54;" d="M415.993,511.992c-5.891,0-10.656-4.781-10.656-10.672v-10.672c0-5.891,4.766-10.656,10.656-10.656
		s10.672,4.766,10.672,10.656v10.672C426.665,507.211,421.884,511.992,415.993,511.992z"/>
</g>
<rect x="362.645" y="277.326" style="fill:#EC87C0;" width="42.688" height="85.33"/>
<rect x="319.995" y="277.326" style="fill:#ED5564;" width="42.656" height="85.33"/>
<rect x="149.346" y="159.996" style="fill:#A0D468;" width="42.656" height="85.33"/>
<rect x="319.995" y="42.656" style="fill:#FFCE54;" width="42.656" height="85.34"/>
<rect x="362.645" y="42.656" style="fill:#48CFAD;" width="42.688" height="85.34"/>
<rect x="106.655" y="85.326" style="fill:#ED5564;" width="85.34" height="42.671"/>
<rect x="277.335" y="42.656" style="fill:#5D9CEC;" width="42.654" height="85.34"/>
<rect x="106.655" y="159.996" style="fill:#AC92EB;" width="42.687" height="85.33"/>
<rect x="319.995" y="202.656" style="fill:#FC6E51;" width="85.34" height="42.671"/>
<rect x="106.655" y="277.326" style="fill:#FFCE54;" width="42.687" height="85.33"/>
<rect x="234.656" y="319.996" style="fill:#48CFAD;" width="85.34" height="42.656"/>
<rect x="234.656" y="277.326" style="fill:#AC92EB;" width="85.34" height="42.67"/>
<g>
	<path style="fill:#656D78;" d="M437.319,255.996H74.655c-5.875,0-10.656-4.781-10.656-10.672c0-5.89,4.781-10.671,10.656-10.671
		H437.32c5.891,0,10.672,4.781,10.672,10.671C447.991,251.214,443.21,255.996,437.319,255.996z"/>
	<path style="fill:#656D78;" d="M437.319,138.654H74.655c-5.875,0-10.656-4.766-10.656-10.656c0-5.906,4.781-10.672,10.656-10.672
		H437.32c5.891,0,10.672,4.766,10.672,10.672C447.991,133.888,443.21,138.654,437.319,138.654z"/>
	<path style="fill:#656D78;" d="M437.319,0H74.655C68.78,0,64,4.765,64,10.656v479.992c0,5.891,4.781,10.672,10.656,10.672H437.32
		c5.891,0,10.672-4.781,10.672-10.672V10.656C447.991,4.766,443.21,0,437.319,0z M426.665,21.328v330.667H85.342V21.328H426.665z"/>
</g>
<rect x="245.335" y="351.996" style="fill:#434A54;" width="21.312" height="149.33"/>
<g>
	<path style="fill:#FFCE54;" d="M223.997,447.992c-5.891,0-10.656-4.781-10.656-10.672v-21.326c0-5.906,4.766-10.672,10.656-10.672
		s10.656,4.766,10.656,10.672v21.326C234.652,443.211,229.887,447.992,223.997,447.992z"/>
	<path style="fill:#FFCE54;" d="M287.995,447.992c-5.891,0-10.656-4.781-10.656-10.672v-21.326c0-5.906,4.766-10.672,10.656-10.672
		s10.656,4.766,10.656,10.672v21.326C298.651,443.211,293.886,447.992,287.995,447.992z"/>
</g>
<g>
</g>
<g>
</g>
<g>
</g>
<g>
</g>
<g>
</g>
<g>
</g>
<g>
</g>
<g>
</g>
<g>
</g>
<g>
</g>
<g>
</g>
<g>
</g>
<g>
</g>
<g>
</g>
<g>
</g>
</svg>
